<?xml version="1.0" encoding="UTF-8"?>
<svg width="20px" height="16px" viewBox="0 0 20 16" version="1.1" xmlns="http://www.w3.org/2000/svg" xmlns:xlink="http://www.w3.org/1999/xlink">
    <!-- Generator: Sketch 57.1 (83088) - https://sketch.com -->
    <title>bars</title>
    <desc>Created with Sketch.</desc>
    <g id="Mockup" stroke="none" stroke-width="1" fill="none" fill-rule="evenodd">
        <g id="PHONE" transform="translate(-15.000000, -117.000000)" fill="#663399" fill-rule="nonzero">
            <g id="header-XS" transform="translate(0.000000, 20.000000)">
                <g id="header">
                    <g id="nav" transform="translate(0.000000, 80.000000)">
                        <g id="bars" transform="translate(15.000000, 17.000000)">
                            <path d="M18.5531915,2.38297872 L0.510638298,2.38297872 C0.228638298,2.38297872 0,2.15434043 0,1.87234043 L0,0.510638298 C0,0.228638298 0.228638298,0 0.510638298,0 L18.5531915,0 C18.8351915,0 19.0638298,0.228638298 19.0638298,0.510638298 L19.0638298,1.87234043 C19.0638298,2.15434043 18.8351915,2.38297872 18.5531915,2.38297872 Z M18.5531915,9.19148936 L0.510638298,9.19148936 C0.228638298,9.19148936 0,8.96285106 0,8.68085106 L0,7.31914894 C0,7.03714894 0.228638298,6.80851064 0.510638298,6.80851064 L18.5531915,6.80851064 C18.8351915,6.80851064 19.0638298,7.03714894 19.0638298,7.31914894 L19.0638298,8.68085106 C19.0638298,8.96285106 18.8351915,9.19148936 18.5531915,9.19148936 Z M18.5531915,16 L0.510638298,16 C0.228638298,16 0,15.7713617 0,15.4893617 L0,14.1276596 C0,13.8456596 0.228638298,13.6170213 0.510638298,13.6170213 L18.5531915,13.6170213 C18.8351915,13.6170213 19.0638298,13.8456596 19.0638298,14.1276596 L19.0638298,15.4893617 C19.0638298,15.7713617 18.8351915,16 18.5531915,16 Z" id="Shape"></path>
                        </g>
                    </g>
                </g>
            </g>
        </g>
    </g>
</svg>
