<?xml version="1.0" encoding="UTF-8"?>
<svg width="36px" height="28px" viewBox="0 0 36 28" version="1.1" xmlns="http://www.w3.org/2000/svg" xmlns:xlink="http://www.w3.org/1999/xlink">
    <!-- Generator: Sketch 57.1 (83088) - https://sketch.com -->
    <title>cart</title>
    <desc>Created with Sketch.</desc>
    <g id="Mockup" stroke="none" stroke-width="1" fill="none" fill-rule="evenodd">
        <g id="PHONE" transform="translate(-269.000000, -111.000000)">
            <g id="header-XS" transform="translate(0.000000, 20.000000)">
                <g id="header">
                    <g id="cart" transform="translate(269.000000, 91.000000)">
                        <path d="M30.1870078,3.5 L7.07,3.5 L6.61450781,1.07061719 C6.49807812,0.449859375 5.95607031,0 5.32448437,0 L0.65625,0 C0.293835937,0 0,0.293835938 0,0.65625 L0,1.09375 C0,1.45616406 0.293835937,1.75 0.65625,1.75 L4.96125,1.75 L8.78538281,22.1454844 C8.21980469,22.7671719 7.875,23.5932813 7.875,24.5 C7.875,26.4329844 9.44201562,28 11.375,28 C13.3079844,28 14.875,26.4329844 14.875,24.5 C14.8756816,23.8854703 14.7137398,23.2817026 14.4056172,22.75 L22.3444375,22.75 C22.0363149,23.2817026 21.8743731,23.8854703 21.8750547,24.5 C21.8750547,26.4329844 23.4420703,28 25.3750547,28 C27.3080391,28 28.8750547,26.4329844 28.8750547,24.5 C28.8750547,23.5160078 28.4684531,22.6275 27.8147734,21.9915937 C27.6730781,21.4315391 27.1665625,21 26.541375,21 L10.35125,21 L9.695,17.5 L27.8173984,17.5 C28.4390859,17.5 28.9755156,17.0638125 29.1023359,16.4551953 L31.472,5.08019531 C31.64175,4.26513281 31.0195703,3.5 30.1870078,3.5 Z M13.125,24.5 C13.125,25.4649609 12.3399609,26.25 11.375,26.25 C10.4100391,26.25 9.625,25.4649609 9.625,24.5 C9.625,23.5350391 10.4100391,22.75 11.375,22.75 C12.3399609,22.75 13.125,23.5350391 13.125,24.5 Z M25.375,26.25 C24.4100391,26.25 23.625,25.4649609 23.625,24.5 C23.625,23.5350391 24.4100391,22.75 25.375,22.75 C26.3399609,22.75 27.125,23.5350391 27.125,24.5 C27.125,25.4649609 26.3399609,26.25 25.375,26.25 Z M27.4616563,15.75 L9.366875,15.75 L7.398125,5.25 L29.6491563,5.25 L27.4616563,15.75 Z" id="Shape" fill="#000000" fill-rule="nonzero"></path>
                        <g id="shopping-cart-qty" transform="translate(22.000000, 0.000000)">
                            <circle id="Oval" fill="#9E8B6B" cx="7" cy="7" r="7"></circle>
                            <text id="3" font-family=".AppleSystemUIFont" font-size="10" font-weight="normal" fill="#FFFFFF">
                                <tspan x="4" y="12">3</tspan>
                            </text>
                        </g>
                    </g>
                </g>
            </g>
        </g>
    </g>
</svg>