<?xml version="1.0" encoding="UTF-8"?>
<svg width="268px" height="60px" viewBox="0 0 268 60" version="1.1" xmlns="http://www.w3.org/2000/svg" xmlns:xlink="http://www.w3.org/1999/xlink">
    <!-- Generator: Sketch 57.1 (83088) - https://sketch.com -->
    <title>logo</title>
    <desc>Created with Sketch.</desc>
    <defs>
        <radialGradient cx="25.9705323%" cy="20.612129%" fx="25.9705323%" fy="20.612129%" r="67.550153%" id="radialGradient-1">
            <stop stop-color="#4A63AB" offset="0%"></stop>
            <stop stop-color="#BF57A8" offset="100%"></stop>
        </radialGradient>
        <linearGradient x1="-0.00102404601%" y1="49.9931579%" x2="99.9997652%" y2="49.9931579%" id="linearGradient-2">
            <stop stop-color="#363F9A" offset="0%"></stop>
            <stop stop-color="#BF57A8" offset="100%"></stop>
        </linearGradient>
        <linearGradient x1="8.4797614%" y1="71.7522665%" x2="50.5727603%" y2="50.8157967%" id="linearGradient-3">
            <stop stop-color="#B7268F" offset="0.05008%"></stop>
            <stop stop-color="#25A8CC" stop-opacity="0.2" offset="100%"></stop>
        </linearGradient>
        <linearGradient x1="39.4048561%" y1="5.33833637%" x2="61.6498853%" y2="95.1615534%" id="linearGradient-4">
            <stop stop-color="#363F9A" offset="0%"></stop>
            <stop stop-color="#BF57A8" offset="100%"></stop>
        </linearGradient>
        <linearGradient x1="2308.23758%" y1="195.7646%" x2="-1262.53121%" y2="-34.7303%" id="linearGradient-5">
            <stop stop-color="#B7268F" offset="0.05008%"></stop>
            <stop stop-color="#25A8CC" offset="100%"></stop>
        </linearGradient>
        <linearGradient x1="91.4638298%" y1="50.8638734%" x2="8.37588652%" y2="49.1332883%" id="linearGradient-6">
            <stop stop-color="#B7268F" offset="0.05008%"></stop>
            <stop stop-color="#25A8CC" offset="100%"></stop>
        </linearGradient>
        <linearGradient x1="97.3212313%" y1="70.1668021%" x2="0.91195789%" y2="30.4367734%" id="linearGradient-7">
            <stop stop-color="#B7268F" offset="0.05008%"></stop>
            <stop stop-color="#25A8CC" offset="100%"></stop>
        </linearGradient>
        <linearGradient x1="73.9005358%" y1="30.5285372%" x2="16.8133207%" y2="89.4099073%" id="linearGradient-8">
            <stop stop-color="#B7268F" offset="0.05008%"></stop>
            <stop stop-color="#25A8CC" offset="100%"></stop>
        </linearGradient>
        <linearGradient x1="10.674851%" y1="38.0171035%" x2="105.147484%" y2="63.6261468%" id="linearGradient-9">
            <stop stop-color="#B7268F" offset="0.05008%"></stop>
            <stop stop-color="#25A8CC" stop-opacity="0" offset="99.9%"></stop>
        </linearGradient>
        <linearGradient x1="94.8600796%" y1="73.73524%" x2="-1.9454514%" y2="40.0375083%" id="linearGradient-10">
            <stop stop-color="#B7268F" offset="0.05008%"></stop>
            <stop stop-color="#25A8CC" offset="100%"></stop>
        </linearGradient>
        <linearGradient x1="54.1849654%" y1="-22.5483531%" x2="46.4593207%" y2="77.8109354%" id="linearGradient-11">
            <stop stop-color="#B7268F" offset="0.05008%"></stop>
            <stop stop-color="#25A8CC" stop-opacity="0" offset="99.9%"></stop>
        </linearGradient>
        <linearGradient x1="89.732837%" y1="93.9401811%" x2="11.1678707%" y2="3.54108233%" id="linearGradient-12">
            <stop stop-color="#B33798" offset="0%"></stop>
            <stop stop-color="#F249A2" offset="99.8%"></stop>
        </linearGradient>
        <radialGradient cx="81.7572458%" cy="20.8567291%" fx="81.7572458%" fy="20.8567291%" r="53.1309885%" gradientTransform="translate(0.817572,0.208567),scale(1.000000,0.891892),translate(-0.817572,-0.208567)" id="radialGradient-13">
            <stop stop-color="#F249A2" offset="0.204327%"></stop>
            <stop stop-color="#F249A2" stop-opacity="0" offset="100%"></stop>
        </radialGradient>
        <linearGradient x1="63.5238851%" y1="101.093031%" x2="37.6691463%" y2="9.18963488%" id="linearGradient-14">
            <stop stop-color="#B33798" offset="0%"></stop>
            <stop stop-color="#F249A2" offset="100%"></stop>
        </linearGradient>
        <linearGradient x1="62.9495317%" y1="99.4589167%" x2="36.065718%" y2="3.49638435%" id="linearGradient-15">
            <stop stop-color="#B33798" offset="0%"></stop>
            <stop stop-color="#F249A2" offset="100%"></stop>
        </linearGradient>
    </defs>
    <g id="Mockup" stroke="none" stroke-width="1" fill="none" fill-rule="evenodd">
        <g id="PHONE" transform="translate(-26.000000, -21.000000)" fill-rule="nonzero">
            <g id="header-XS" transform="translate(0.000000, 20.000000)">
                <g id="header">
                    <g id="logo" transform="translate(26.000000, 0.000000)">
                        <g id="Безымянный-1">
                            <path d="M37.0246204,60.1581984 C37.1206168,60.1341896 37.2106135,60.1101809 37.3066099,60.0861721 C37.5166021,60.0321523 37.732594,59.9781326 37.9425862,59.9181107 C38.5665629,59.744047 39.1845399,59.5519768 39.7905173,59.3419 C39.8205162,59.3298956 39.8505151,59.3178912 39.880514,59.311889 C41.2844617,58.8197091 42.6404111,58.2314941 43.9423626,57.5412418 C44.0623582,57.4752176 44.1883535,57.4091935 44.308349,57.3431694 C44.4403441,57.271143 44.5663394,57.2051189 44.6983345,57.1330926 C58.2578292,49.5343147 63.8796197,32.8182039 57.1598701,18.292894 C51.2800892,5.59225115 39.424531,0.940550657 29.3269072,1 C18.2813188,1.06659673 7.97370289,9.84780682 12.6595283,20.2015918 C15.431425,4.98602953 42.5744136,1.5167613 50.9261024,19.9194886 C57.3698623,34.1086757 50.8901037,49.3362423 37.8645891,53.5797936 C16.1213993,60.6563805 -1.12795797,43.2500174 0.935965124,23.5268074 C0.935965124,23.5268074 0.935965124,23.5328095 0.935965124,23.5328095 L0.563978985,25.1894151 C0.191992846,27.0681019 0,29.0068106 0,30.9935369 C0,36.8636828 1.68593718,42.3376839 4.59582875,46.9593734 C4.61982786,47.0013888 4.64982674,47.0434041 4.67382585,47.0854195 C4.73982339,47.1874568 4.80582093,47.2894941 4.87181847,47.3915314 C7.2057315,50.9808435 10.2236191,53.9399253 13.6674907,56.1667393 C13.739488,56.2147568 13.8114854,56.2627744 13.8834827,56.3047898 C13.95548,56.3528073 14.0274773,56.3948227 14.0994746,56.4428402 C17.5733452,58.6216367 21.5271979,60.1041787 25.76304,60.6983959 C25.8830356,60.7164025 26.0030311,60.7344091 26.1290264,60.7464135 C26.1770246,60.7524156 26.2250228,60.7584178 26.273021,60.76442 C29.440903,61.166567 32.6987816,61.0585276 35.9146618,60.4042884 C35.9386609,60.3982862 35.96266,60.392284 35.9926589,60.3862818 C36.3346461,60.3202577 36.6826331,60.2422291 37.0246204,60.1581984 Z" id="Path" fill="url(#radialGradient-1)"></path>
                            <path d="M4.66166291,46.1471627 C4.68572867,46.183336 4.70979442,46.2255381 4.73386018,46.2617114 C4.79402456,46.3521446 4.85418895,46.4486066 4.92036978,46.5390398 C7.10433701,49.824778 9.93206319,52.5257151 13.1508579,54.5695046 C13.2170387,54.6117067 13.2832195,54.6539089 13.3494003,54.696111 C13.4155812,54.7383132 13.481762,54.7805153 13.5539593,54.8227174 C16.8088526,56.812247 20.5029459,58.1687444 24.4737954,58.7173723 C24.5881078,58.7354589 24.7024201,58.7475167 24.810716,58.7656033 C24.8528311,58.7716322 24.9009626,58.7776611 24.9430777,58.7836899 C27.9091819,59.1514515 30.9534999,59.0549894 33.9677357,58.4581306 C33.9918014,58.4521017 34.0158672,58.4460728 34.0399329,58.4460728 C34.3648206,58.3797552 34.6897083,58.3134375 35.0085796,58.2350621 C35.0988261,58.2169755 35.1830563,58.19286 35.2733029,58.1687444 C35.4718453,58.1205134 35.6703878,58.0662535 35.8689303,58.0119936 C36.4525248,57.8552428 37.0301029,57.6804054 37.5956482,57.4874813 C37.6257304,57.4754235 37.6558126,57.4693947 37.6798783,57.4573369 C38.9914619,57.0051711 40.2609305,56.468601 41.4762511,55.8415977 C41.5905635,55.781309 41.7048758,55.7210202 41.8191881,55.6607314 C41.9395169,55.5944138 42.0598457,55.534125 42.1801744,55.4678073 C54.8808765,48.5104827 60.7469042,32.7931991 54.4597258,19.5055531 C48.9546844,7.88187734 37.8302893,3.2336128 27.8069025,4.10177116 C18.8785075,4.87346748 13.2711866,9.86537803 11.0150221,14.5679025 C10.9247756,16.3765657 11.273729,18.281691 12.1641619,20.2531339 C14.9437566,4.96992952 42.1621251,1.48523833 50.5370078,19.9697767 C56.9986629,34.2220431 50.5009091,49.5173053 37.4392208,53.7797216 C15.635647,60.8937971 -1.66161413,43.4100524 0.408040775,23.5991609 C-1.12013465,33.2031628 1.94223264,41.9148907 4.66166291,46.1471627 Z" id="Path" fill="url(#linearGradient-2)" opacity="0.34"></path>
                            <path d="M14.9649967,14.814217 C14.1436919,7.96634615 20.4097309,3.31936813 23,2 C15.3900076,4.13083791 9.34796081,13.0511676 13.190289,19 C13.4085379,17.8207418 14.2240993,15.8942308 14.9649967,14.814217 Z" id="Path" fill="url(#linearGradient-3)" opacity="0.67"></path>
                            <g id="Group" opacity="0.34" transform="translate(0.000000, 4.000000)" fill="url(#linearGradient-4)">
                                <path d="M0.456480506,19.6351204 C-0.0780821918,22.9989059 -0.0720758693,26.440919 0.414436249,29.8107221 C0.660695469,31.4956236 1.01506849,33.1624726 1.50158061,34.7992341 C1.98208641,36.4299781 2.57671233,38.0306346 3.30948367,39.571116 C3.67586934,40.3413567 4.07228662,41.0935449 4.5227608,41.8156455 C4.63688093,41.9961707 4.74499473,42.1766958 4.86512118,42.3512035 C4.97924131,42.5317287 5.10537408,42.7062363 5.22550053,42.880744 L5.4056902,43.1455142 L5.5918862,43.404267 C5.71801897,43.5787746 5.83814542,43.7472648 5.97028451,43.9157549 C6.99736565,45.2696937 8.15658588,46.5273523 9.41791359,47.6646608 C11.940569,49.9452954 14.883667,51.750547 18.0489989,52.9901532 C19.6346681,53.6039387 21.2683878,54.0793217 22.9381454,54.404267 C23.3525817,54.4824945 23.7730242,54.5607221 24.1934668,54.6208972 L24.5057956,54.6690372 L24.8241307,54.7111597 L25.4547945,54.7833698 C26.301686,54.8736324 27.1485774,54.9217724 27.9954689,54.9338074 C31.3950474,54.9939825 34.7946259,54.4223195 37.9959958,53.2850109 C41.1973656,52.1477024 44.1885142,50.4266958 46.7952582,48.2423414 C49.4020021,46.0579869 51.6063224,43.404267 53.2880927,40.4436543 C54.969863,37.4890591 56.1170706,34.2215536 56.627608,30.8577681 C56.8858799,29.178884 56.981981,27.4699125 56.9159115,25.7669584 C56.8498419,24.0640044 56.6155954,22.3730853 56.2191781,20.7182713 C55.4323498,17.4086433 53.9728135,14.2675055 52.0507903,11.4633479 C51.0837724,10.0672867 49.9906217,8.75547046 48.7713383,7.56400438 C48.1646997,6.96827133 47.5280295,6.40262582 46.867334,5.87308534 C46.2066386,5.34354486 45.5159115,4.8380744 44.8071654,4.37472648 C41.9601686,2.51531729 38.7467861,1.23358862 35.4132771,0.583698031 C33.7435195,0.258752735 32.0497366,0.0902625821 30.3499473,0.0782275711 C28.6501581,0.0661925602 26.9503688,0.210612691 25.2806112,0.523522976 C23.6108535,0.83643326 21.9711275,1.3238512 20.41549,2.00382932 C18.8538462,2.67778993 17.3762908,3.54431072 16.0368809,4.59135667 C14.697471,5.63840263 13.4902002,6.85995624 12.4871444,8.23796499 C11.9886196,8.92396061 11.5381454,9.65207877 11.1597471,10.416302 C10.7813488,11.1745077 10.46902,11.9748359 10.2467861,12.7992341 C10.46902,11.9748359 10.7753425,11.1805252 11.1597471,10.416302 C11.5381454,9.65207877 11.9826133,8.92396061 12.4871444,8.23796499 C13.4841939,6.85995624 14.6914647,5.63238512 16.0308746,4.58533917 C17.3702845,3.53829322 18.8538462,2.67177243 20.4094837,1.99179431 C21.9711275,1.31181619 23.6108535,0.818380744 25.2806112,0.50547046 C26.9503688,0.18654267 28.6561644,0.0421225383 30.3559536,0.0541575492 C32.0557429,0.0601750547 33.7555321,0.234682713 35.4252898,0.553610503 C38.7648051,1.20350109 41.9841939,2.48522976 44.837197,4.34463895 C45.5519494,4.80798687 46.2426765,5.30743982 46.903372,5.84299781 C47.5700738,6.37253829 48.2067439,6.93818381 48.8133825,7.53993435 C50.032666,8.73140044 51.1258166,10.0432166 52.0988409,11.4452954 C53.0658588,12.8473742 53.9067439,14.333698 54.61549,15.8862144 C55.324236,17.4387309 55.882824,19.0514223 56.2792413,20.7122538 C56.6756586,22.3670678 56.9099052,24.0640044 56.9759747,25.7669584 C57.0420443,27.4699125 56.9459431,29.178884 56.6936776,30.8637856 C56.1831401,34.2335886 55.0359326,37.5071116 53.3541623,40.4677243 C51.672392,43.4343545 49.456059,46.0940919 46.8493151,48.2784464 C44.2425711,50.4688184 41.2394099,52.1838074 38.0320337,53.3271335 C34.8246575,54.464442 31.4130664,55.036105 28.0134879,54.97593 C27.1605901,54.963895 26.3136986,54.9097374 25.4668072,54.8194748 L24.830137,54.7472648 L24.5118019,54.7051422 L24.1934668,54.6570022 C23.7730242,54.5968271 23.3525817,54.5185996 22.9381454,54.440372 C21.2683878,54.1154267 19.6286617,53.6340263 18.0429926,53.0202407 C14.8776607,51.7746171 11.9285564,49.9693654 9.40590095,47.6827133 C8.14457323,46.5393873 6.985353,45.2817287 5.95827187,43.9277899 C5.82613277,43.7592998 5.70600632,43.5847921 5.57987355,43.416302 L5.39367756,43.1575492 L5.21348788,42.892779 C5.09336143,42.7182713 4.97323498,42.5437637 4.85310854,42.3632385 C4.73298209,42.1887309 4.62486828,42.0021882 4.51074816,41.821663 C4.06027397,41.0995624 3.66385669,40.3413567 3.29747102,39.571116 C2.57070601,38.0306346 1.97608008,36.4299781 1.49557429,34.7932166 C1.01506849,33.1564551 0.660695469,31.4896061 0.414436249,29.8047046 C-0.0780821918,26.440919 -0.0780821918,22.9989059 0.456480506,19.6351204 Z" id="Path"></path>
                            </g>
                            <path d="M28,1.04 C28.3312102,1 28.6624204,0.98 29,0.96 C28.6624204,0.98 28.3312102,1.01 28,1.04 Z" id="Path" fill="url(#linearGradient-5)"></path>
                            <path d="M27,1.05994006 C27.6524823,1.00599401 28.3191489,0.964035964 29,0.94005994 C28.3120567,0.958041958 27.6453901,1 27,1.05994006 Z" id="Path" fill="url(#linearGradient-6)"></path>
                            <path d="M42.8800942,28.3209064 C37.4745387,39.5213847 20.7851892,38.5070247 13.8525038,32.9857477 C2.38690855,23.8382855 7.98032524,1.77139954 28.7662616,1 C12.361734,1.48592097 6.81073757,20.2303223 18.003631,26.8813655 C25.7907821,31.5097627 36.8806548,28.4302386 34.7354007,20.8012794 L34.7899411,18.8515215 L42.1831896,20.4854308 C45.1041287,22.8057034 43.8557606,25.5754529 42.8800942,28.3209064 Z" id="Path" fill="url(#linearGradient-7)"></path>
                            <path d="M35.1648174,20.2804323 C37.2911578,27.7893387 26.2990591,30.820402 18.5805636,26.2648394 C8.08100704,20.0652089 12.4478135,3.21201859 26.7195219,1.01793529 C26.7135153,1.00597843 26.7075087,1 26.7015021,1 C24.6352278,1.26305086 22.7371386,1.75328201 21.0192478,2.42884444 C19.2472974,3.25386759 17.2110562,4.56314346 15.1267621,6.6376582 C9.15619046,14.4813566 9.61269292,23.7120504 16.8326397,29.3198164 C24.3288906,35.1487843 43.159617,31.3166116 39.543637,19.3179053 L35.2188769,18.3673352 L35.1648174,20.2804323 Z" id="Path" fill="url(#linearGradient-8)" opacity="0.21"></path>
                            <path d="M18.0663309,27 C17.1935614,28.8460026 17.1814396,29.5124509 17.035978,31.5589777 C16.9996126,32.1133683 16.9935517,32.6618611 17.0056735,33.2162516 C19.0239531,34.525557 21.2967904,35.7994758 25,36 C23.8363073,33.6114024 23.5938713,29.612713 24.5939197,28.3152031 C22.7998935,28.2267366 18.3208887,27.1769332 18.0663309,27 Z" id="Path" fill="url(#linearGradient-9)"></path>
                            <g id="Group" opacity="0.26" transform="translate(11.000000, 7.000000)" fill="url(#linearGradient-10)">
                                <path d="M4.13429752,0.00588235294 C2.68429752,1.88823529 1.51590909,3.98823529 0.802892562,6.24117647 C0.44338843,7.36470588 0.203719008,8.52941176 0.0958677686,9.7 C0.0419421488,10.2882353 0.0299586777,10.8764706 0.0479338843,11.4647059 C0.0539256198,11.7588235 0.077892562,12.0529412 0.101859504,12.3470588 C0.131818182,12.6411765 0.167768595,12.9352941 0.215702479,13.2235294 C0.401446281,14.3882353 0.742975207,15.5294118 1.22830579,16.6058824 C1.71363636,17.6823529 2.3427686,18.7 3.09173554,19.6176471 C3.46322314,20.0823529 3.86466942,20.5176471 4.29008264,20.9352941 C4.71549587,21.3529412 5.16487603,21.7470588 5.6322314,22.1117647 C6.55495868,22.8647059 7.6214876,23.4294118 8.74194215,23.8529412 C9.86239669,24.2764706 11.0367769,24.5588235 12.2231405,24.7235294 C13.4095041,24.8941176 14.613843,24.9470588 15.8121901,24.9058824 C17.0105372,24.8588235 18.2088843,24.7176471 19.3832645,24.4647059 C20.5576446,24.2176471 21.7080579,23.8588235 22.8045455,23.3823529 C23.9010331,22.9058824 24.943595,22.3 25.8663223,21.5411765 C26.7830579,20.7823529 27.5739669,19.8647059 28.1132231,18.8117647 C28.3828512,18.2882353 28.592562,17.7294118 28.7303719,17.1588235 C28.8681818,16.5882353 28.9400826,15.9941176 28.9460744,15.4058824 C28.9581676,14.2235294 28.7183884,13.0529412 28.3229339,11.9352941 C28.7243802,13.0470588 28.9640496,14.2176471 28.9581676,15.4058824 C28.9520661,15.9941176 28.886157,16.5882353 28.7483471,17.1647059 C28.6105372,17.7411765 28.4068182,18.3 28.1371901,18.8294118 C27.5979339,19.8882353 26.8070248,20.8117647 25.8842975,21.5705882 C24.9615702,22.3294118 23.9190083,22.9411765 22.8165289,23.4235294 C21.7200413,23.9058824 20.5636364,24.2647059 19.3892562,24.5117647 C18.214876,24.7647059 17.0165289,24.9117647 15.8121901,24.9588235 C14.6078512,25.0058824 13.4035124,24.9470588 12.211157,24.7823529 C11.0188017,24.6117647 9.84442149,24.3352941 8.71797521,23.9117647 C7.59752066,23.4882353 6.525,22.9117647 5.59628099,22.1588235 C5.12892562,21.7882353 4.67954545,21.3941176 4.25413223,20.9764706 C3.82871901,20.5588235 3.42727273,20.1176471 3.05578512,19.6529412 C2.30681818,18.7235294 1.68367769,17.7058824 1.19235537,16.6235294 C0.707024793,15.5411765 0.365495868,14.4 0.179752066,13.2294118 C0.131818182,12.9352941 0.0958677686,12.6470588 0.0659090909,12.3529412 C0.0419421488,12.0588235 0.0179752066,11.7647059 0.0119834711,11.4705882 C-0.00599173554,10.8823529 0.0119834711,10.2882353 0.0659090909,9.7 C0.173760331,8.52352941 0.413429752,7.35882353 0.77892562,6.23529412 C1.49793388,3.97647059 2.67830579,1.88235294 4.13429752,0.00588235294 Z" id="Path"></path>
                            </g>
                            <path d="M35.2001767,23.4940711 C37.3550205,22.7885375 40.5166355,23.7252964 42.0002984,25.56917 C42.5890535,26.298419 42.8834311,27.1284585 42.9952945,28 C43.9255276,25.4031621 44.9911744,22.7885375 42.2358004,20.5948617 L35.052988,19 L35,20.9031621 C35.3179278,22.0474308 35.28849,22.7470356 35.2001767,23.4940711 Z" id="Path" fill="url(#linearGradient-11)"></path>
                            <path d="M28,1.04 C28.3312102,1 28.6624204,0.98 29,0.96 C28.6624204,0.98 28.3312102,1.01 28,1.04 Z" id="Path" fill="#FFFFFF"></path>
                            <path d="M42.4923351,28.125585 C46.2018478,21.5482925 41.273926,9.99130831 27.8292041,12.3002937 C13.0936924,14.8263116 7.32132868,34.8957953 19.9216086,45.4098174 C29.5904687,53.4822232 47.6675578,47.2847377 45.8761345,33.382596 C41.5815441,44.1317368 23.4803282,45.3193872 22.3041412,32.2130317 C20.9711293,17.3704156 45.532326,18.1420869 42.4923351,28.125585 Z" id="Path" fill="url(#linearGradient-12)"></path>
                            <path d="M42.4923351,28.125585 C46.2018478,21.5482925 41.273926,9.99130831 27.8292041,12.3002937 C13.0936924,14.8263116 7.32132868,34.8957953 19.9216086,45.4098174 C29.5904687,53.4822232 47.6675578,47.2847377 45.8761345,33.382596 C41.5815441,44.1317368 23.4803282,45.3193872 22.3041412,32.2130317 C20.9711293,17.3704156 45.532326,18.1420869 42.4923351,28.125585 Z" id="Path" fill="url(#radialGradient-13)"></path>
                            <path d="M46,34.2986999 C45.9880253,33.9403403 45.9700632,33.5819807 45.9341391,33.2176485 C41.6711445,43.8669009 23.703101,45.0435149 22.5355673,32.0589525 C21.2183499,17.3602367 45.5988474,18.1247372 42.581222,28.0154618 C43.5751224,26.3072811 44.0062118,23.9480805 43.6469706,21.726251 C42.4854244,17.8380495 38.533772,15.1025713 30.7382396,16.2732126 C18.2965221,18.1366825 12.91988,34.6092782 24.0743168,42.2184468 C33.1571299,48.4001497 45.694645,43.6279945 46,34.2986999 Z" id="Path" fill="url(#linearGradient-14)" opacity="0.33"></path>
                            <g id="Group" opacity="0.45" transform="translate(18.000000, 16.000000)" fill="url(#linearGradient-15)">
                                <path d="M25.5991489,5.75831622 C25.3668085,4.98418891 25.0153191,4.23983573 24.5506383,3.5788501 C24.0859574,2.91786448 23.5021277,2.34024641 22.8468085,1.8698152 C22.1914894,1.39938398 21.4587234,1.0301848 20.6961702,0.762217659 C20.3148936,0.625256674 19.9276596,0.51211499 19.5344681,0.422792608 C19.1412766,0.333470226 18.7421277,0.256057495 18.3429787,0.202464066 C16.7404255,-0.0119096509 15.1080851,0.0416837782 13.5055319,0.232238193 C13.106383,0.279876797 12.7012766,0.339425051 12.3080851,0.410882957 C11.9089362,0.482340862 11.5157447,0.571663244 11.1225532,0.672895277 C10.3421277,0.881314168 9.57957447,1.15523614 8.84085106,1.48870637 C7.3693617,2.15564682 6.01106383,3.07864476 4.84340426,4.19219713 C3.66978723,5.30574949 2.68085106,6.60390144 1.91234043,8.02710472 C1.14382979,9.45030801 0.601702128,10.9926078 0.327659574,12.5825462 C0.0476595745,14.1724846 0.0357446809,15.8100616 0.321702128,17.4 C0.601702128,18.9899384 1.17957447,20.5262834 2.03148936,21.901848 C2.87744681,23.2774127 3.97957447,24.4921971 5.24851064,25.4926078 C6.51744681,26.4930185 7.93531915,27.3088296 9.44255319,27.8864476 C10.9497872,28.4640657 12.5523404,28.8094456 14.1668085,28.9047228 C15.7812766,29 17.4076596,28.8451745 18.9744681,28.4342916 C20.5353191,28.0234086 22.0365957,27.3564682 23.3651064,26.4275154 C24.6876596,25.5045175 25.8374468,24.3075975 26.6417021,22.9022587 C27.0468085,22.1995893 27.3625532,21.4492813 27.5829787,20.675154 C27.8034043,19.8950719 27.9225532,19.0911704 27.9523404,18.2813142 C27.9285106,19.0911704 27.8093617,19.8950719 27.5889362,20.675154 C27.3744681,21.4552361 27.0587234,22.2055441 26.653617,22.9082136 C25.8493617,24.3195072 24.7055319,25.5164271 23.3829787,26.4453799 C22.0544681,27.3743326 20.5531915,28.0472279 18.986383,28.4581109 C17.4195745,28.8689938 15.787234,29.0297741 14.1668085,28.9344969 C12.546383,28.8392197 10.9438298,28.4938398 9.4306383,27.9162218 C7.91744681,27.3386037 6.49361702,26.5227926 5.2187234,25.5164271 C3.94978723,24.5100616 2.83574468,23.301232 1.98382979,21.9137577 C1.13191489,20.5322382 0.548085106,18.9899384 0.26212766,17.3940452 C-0.0238297872,15.798152 -0.00595744681,14.1486653 0.274042553,12.5527721 C0.554042553,10.9568789 1.10212766,9.40862423 1.8706383,7.97946612 C2.63914894,6.55626283 3.63404255,5.24620123 4.81361702,4.13264887 C5.99319149,3.01909651 7.35148936,2.09609856 8.82893617,1.42915811 C9.56765957,1.09568789 10.3302128,0.821765914 11.1165957,0.613347023 C11.5097872,0.51211499 11.9029787,0.422792608 12.3021277,0.351334702 C12.7012766,0.279876797 13.1004255,0.226283368 13.5055319,0.172689938 C15.1140426,-0.0178644764 16.746383,-0.0714579055 18.3548936,0.148870637 C18.7540426,0.202464066 19.1531915,0.279876797 19.5523404,0.369199179 C19.9455319,0.464476386 20.3387234,0.57761807 20.72,0.714579055 C21.4825532,0.988501027 22.2153191,1.35770021 22.8706383,1.82813142 C23.5259574,2.30451745 24.1097872,2.88213552 24.5685106,3.54907598 C25.0212766,4.24579055 25.372766,4.98418891 25.5991489,5.75831622 Z" id="Path"></path>
                            </g>
                        </g>
                        <path d="M88.96,40.43 L86.77,33.95 L80.83,33.95 L78.52,40.43 L80.77,40.43 L80.77,41 L76.18,41 L76.18,40.43 L77.59,40.43 L85.24,19.82 L87.7,19.82 L95.26,40.43 L96.64,40.43 L96.64,41 L86.83,41 L86.83,40.43 L88.96,40.43 Z M83.92,25.43 L81.1,33.29 L86.53,33.29 L83.92,25.43 Z M108.07,32.93 C108.07,30.8699897 107.970001,29.4850035 107.77,28.775 C107.569999,28.0649964 107.180003,27.71 106.6,27.71 C106.019997,27.71 105.500002,28.0699964 105.04,28.79 C104.579998,29.5100036 104.35,30.4999937 104.35,31.76 L104.35,37.34 C104.35,38.2000043 104.524998,38.929997 104.875,39.53 C105.225002,40.130003 105.724997,40.43 106.375,40.43 C107.025003,40.43 107.469999,39.9900044 107.71,39.11 C107.950001,38.2299956 108.07,36.690011 108.07,34.49 L108.07,32.93 Z M104.35,18.5 L104.35,29 C105.110004,27.2799914 106.409991,26.42 108.25,26.42 C111.990019,26.42 113.86,28.9099751 113.86,33.89 C113.86,36.4300127 113.345005,38.299994 112.315,39.5 C111.284995,40.700006 109.74001,41.3 107.68,41.3 C106.639995,41.3 105.845003,41.1400016 105.295,40.82 C104.744997,40.5 104.370001,39.9700037 104.17,39.23 L103.96,41 L97.12,41 L97.12,40.46 L98.77,40.46 L98.77,19.04 L97.12,19.04 L97.12,18.5 L104.35,18.5 Z M115.45,41.3 L115.45,35.93 L115.81,35.93 C116.330003,37.6700087 117.029996,38.8899965 117.91,39.59 C118.790004,40.2900035 119.889993,40.64 121.21,40.64 C123.25001,40.64 124.27,39.9900065 124.27,38.69 C124.27,38.1299972 124.020003,37.7100014 123.52,37.43 C122.739996,36.9899978 121.740006,36.6500012 120.52,36.41 C119.159993,36.0499982 118.020005,35.570003 117.1,34.97 C115.999995,34.2499964 115.45,33.1100078 115.45,31.55 C115.45,29.9899922 115.929995,28.7450047 116.89,27.815 C117.850005,26.8849954 119.129992,26.42 120.73,26.42 C121.710005,26.42 122.719995,26.6499977 123.76,27.11 C124.140002,27.2700008 124.429999,27.35 124.63,27.35 C124.830001,27.35 124.999999,27.2800007 125.14,27.14 C125.280001,26.9999993 125.45,26.7400019 125.65,26.36 L125.98,26.36 L125.98,30.95 L125.62,30.95 C124.599995,28.349987 123.020011,27.05 120.88,27.05 C119.939995,27.05 119.240002,27.2149984 118.78,27.545 C118.319998,27.8750017 118.09,28.2899975 118.09,28.79 C118.09,29.0900015 118.159999,29.3249992 118.3,29.495 C118.440001,29.6650008 118.55,29.7899996 118.63,29.87 C118.71,29.9500004 118.839999,30.0349996 119.02,30.125 C119.200001,30.2150004 119.349999,30.2849997 119.47,30.335 C119.590001,30.3850003 119.774999,30.4499996 120.025,30.53 C120.275001,30.6100004 120.459999,30.6599999 120.58,30.68 C121.940007,31.0200017 122.919997,31.3149987 123.52,31.565 C124.120003,31.8150012 124.689997,32.1199982 125.23,32.48 C126.330006,33.2400038 126.88,34.4649916 126.88,36.155 C126.88,37.8450085 126.380005,39.1249957 125.38,39.995 C124.379995,40.8650043 123.010009,41.3 121.27,41.3 C120.029994,41.3 118.830006,41.0100029 117.67,40.43 C117.429999,40.2699992 117.240001,40.19 117.1,40.19 C116.659998,40.19 116.230002,40.5599963 115.81,41.3 L115.45,41.3 Z M129.28,36.71 L129.28,27.26 L127.63,27.26 L127.63,26.72 L129.28,26.72 L129.28,22.85 L134.86,21.47 L134.86,26.72 L138.76,26.72 L138.76,27.26 L134.86,27.26 L134.86,37.37 C134.86,38.3100047 134.954999,38.9999978 135.145,39.44 C135.335001,39.8800022 135.729997,40.1 136.33,40.1 C136.930003,40.1 137.454998,39.800003 137.905,39.2 C138.355002,38.599997 138.649999,37.7800052 138.79,36.74 L139.3,36.8 C139.139999,38.1800069 138.700004,39.274996 137.98,40.085 C137.259996,40.895004 136.070008,41.3 134.41,41.3 C132.749992,41.3 131.480004,40.97 130.6,40.31 C129.719996,39.6499967 129.28,38.4500087 129.28,36.71 Z M149.62,27.56 C148.879996,27.56 148.230003,28.0399952 147.67,29 C147.109997,29.9600048 146.83,31.0999934 146.83,32.42 L146.83,40.46 L148.96,40.46 L148.96,41 L139.6,41 L139.6,40.46 L141.25,40.46 L141.25,27.26 L139.6,27.26 L139.6,26.72 L146.83,26.72 L146.83,29.6 C147.090001,28.5799949 147.589996,27.7950028 148.33,27.245 C149.070004,26.6949973 149.909995,26.42 150.85,26.42 C151.790005,26.42 152.554997,26.6849973 153.145,27.215 C153.735003,27.7450026 154.03,28.4949952 154.03,29.465 C154.03,30.4350049 153.810002,31.1799974 153.37,31.7 C152.929998,32.2200026 152.255005,32.48 151.345,32.48 C150.434995,32.48 149.765002,32.180003 149.335,31.58 C148.904998,30.979997 148.849998,30.1500053 149.17,29.09 L150.25,29.09 C150.750002,28.0699949 150.540005,27.56 149.62,27.56 Z M161.65,33.95 L162.52,33.95 L162.52,31.64 C162.52,29.7399905 162.415001,28.4650033 162.205,27.815 C161.994999,27.1649968 161.590003,26.84 160.99,26.84 C160.629998,26.84 160.305001,26.9349991 160.015,27.125 C159.724999,27.3150009 159.58,27.5749984 159.58,27.905 C159.58,28.2350017 159.639999,28.5699983 159.76,28.91 L160.51,28.91 C160.670001,29.3300021 160.75,29.834997 160.75,30.425 C160.75,31.015003 160.500002,31.5249979 160,31.955 C159.499998,32.3850022 158.870004,32.6 158.11,32.6 C156.389991,32.6 155.53,31.7700083 155.53,30.11 C155.53,27.6499877 157.619979,26.42 161.8,26.42 C164.180012,26.42 165.824995,26.824996 166.735,27.635 C167.645005,28.4450041 168.1,29.9299892 168.1,32.09 L168.1,38.18 C168.1,39.2200052 168.389997,39.74 168.97,39.74 C169.650003,39.74 170.049999,38.7100103 170.17,36.65 L170.62,36.68 C170.54,38.4400088 170.210003,39.6499967 169.63,40.31 C169.049997,40.9700033 168.100007,41.3 166.78,41.3 C164.379988,41.3 163.000002,40.5600074 162.64,39.08 C162.379999,39.8400038 161.990003,40.3999982 161.47,40.76 C160.949997,41.1200018 160.190005,41.3 159.19,41.3 C156.229985,41.3 154.75,40.0900121 154.75,37.67 C154.75,36.2499929 155.314994,35.2750027 156.445,34.745 C157.575006,34.2149974 159.309988,33.95 161.65,33.95 Z M160.45,37.64 C160.45,38.6800052 160.504999,39.3499985 160.615,39.65 C160.725001,39.9500015 160.934998,40.1 161.245,40.1 C161.555002,40.1 161.844999,39.8450026 162.115,39.335 C162.385001,38.8249974 162.52,38.1200045 162.52,37.22 L162.52,34.43 L162.31,34.43 C161.069994,34.43 160.45,35.3399909 160.45,37.16 L160.45,37.64 Z M179.32,26.96 C178.439996,26.96 177.810002,27.4399952 177.43,28.4 C177.049998,29.3600048 176.86,30.9499889 176.86,33.17 L176.86,34.73 C176.86,36.7100099 177.079998,38.1299957 177.52,38.99 C177.960002,39.8500043 178.769994,40.28 179.95,40.28 C181.130006,40.28 182.07,39.880004 182.77,39.08 C183.470004,38.279996 183.919999,37.3700051 184.12,36.35 L184.66,36.41 C184.279998,38.1300086 183.580005,39.3699962 182.56,40.13 C181.519995,40.9100039 180.090009,41.3 178.27,41.3 C175.949988,41.3 174.170006,40.6750063 172.93,39.425 C171.689994,38.1749937 171.07,36.3450121 171.07,33.935 C171.07,31.524988 171.774993,29.6700065 173.185,28.37 C174.595007,27.0699935 176.559987,26.42 179.08,26.42 C180.860009,26.42 182.219995,26.7649965 183.16,27.455 C184.100005,28.1450035 184.57,29.0099948 184.57,30.05 C184.57,31.0900052 184.345002,31.8499976 183.895,32.33 C183.444998,32.8100024 182.825004,33.05 182.035,33.05 C181.244996,33.05 180.610002,32.8400021 180.13,32.42 C179.649998,31.9999979 179.41,31.3800041 179.41,30.56 C179.41,30.1999982 179.46,29.8400018 179.56,29.48 L180.55,29.48 C180.690001,29.079998 180.76,28.7200016 180.76,28.4 C180.76,27.4399952 180.280005,26.96 179.32,26.96 Z M186.91,36.71 L186.91,27.26 L185.26,27.26 L185.26,26.72 L186.91,26.72 L186.91,22.85 L192.49,21.47 L192.49,26.72 L196.39,26.72 L196.39,27.26 L192.49,27.26 L192.49,37.37 C192.49,38.3100047 192.584999,38.9999978 192.775,39.44 C192.965001,39.8800022 193.359997,40.1 193.96,40.1 C194.560003,40.1 195.084998,39.800003 195.535,39.2 C195.985002,38.599997 196.279999,37.7800052 196.42,36.74 L196.93,36.8 C196.769999,38.1800069 196.330004,39.274996 195.61,40.085 C194.889996,40.895004 193.700008,41.3 192.04,41.3 C190.379992,41.3 189.110004,40.97 188.23,40.31 C187.349996,39.6499967 186.91,38.4500087 186.91,36.71 Z M202.96,20 L213.76,20 L213.76,20.66 L210.58,20.66 L210.58,40.34 L211.66,40.34 C213.360009,40.34 214.714995,39.8200052 215.725,38.78 C216.735005,37.7399948 217.759995,36.1400108 218.8,33.98 L219.43,33.98 L218.86,41 L202.96,41 L202.96,40.34 L204.73,40.34 L204.73,20.66 L202.96,20.66 L202.96,20 Z M230.2,35.09 L230.2,32.54 C230.2,30.5999903 230.095001,29.1850045 229.885,28.295 C229.674999,27.4049956 229.190004,26.96 228.43,26.96 C227.989998,26.96 227.635001,27.0849988 227.365,27.335 C227.094999,27.5850013 226.900001,27.9999971 226.78,28.58 C226.599999,29.4800045 226.51,30.8499908 226.51,32.69 L226.51,35.03 C226.51,37.2100109 226.574999,38.5199978 226.705,38.96 C226.835001,39.4000022 226.969999,39.7599986 227.11,40.04 C227.330001,40.5200024 227.759997,40.76 228.4,40.76 C229.180004,40.76 229.689999,40.3100045 229.93,39.41 C230.110001,38.7699968 230.2,37.3300112 230.2,35.09 Z M228.34,41.3 C225.839988,41.3 223.950006,40.6600064 222.67,39.38 C221.389994,38.0999936 220.75,36.265012 220.75,33.875 C220.75,31.4849881 221.434993,29.6450064 222.805,28.355 C224.175007,27.0649936 226.099988,26.42 228.58,26.42 C231.060012,26.42 232.909994,27.014994 234.13,28.205 C235.350006,29.395006 235.96,31.2099878 235.96,33.65 C235.96,38.7500255 233.420025,41.3 228.34,41.3 Z M248.83,25.16 L249.67,24.65 C249.790001,24.0299969 249.550003,23.72 248.95,23.72 C248.089996,23.72 247.66,24.3799934 247.66,25.7 C247.66,26.2200026 247.729999,26.8199966 247.87,27.5 C249.390008,28.52 250.15,29.824992 250.15,31.415 C250.15,33.0050079 249.600006,34.2399956 248.5,35.12 C247.399995,36.0000044 245.910009,36.44 244.03,36.44 C243.249996,36.44 242.440004,36.3600008 241.6,36.2 C240.719996,36.7600028 240.28,37.1799986 240.28,37.46 C240.28,37.7400014 240.919994,37.88 242.2,37.88 L245.26,37.88 C249.800023,37.88 252.07,39.5099837 252.07,42.77 C252.07,44.5300088 251.385007,45.9249948 250.015,46.955 C248.644993,47.9850051 246.510015,48.5 243.61,48.5 C238.669975,48.5 236.2,47.4300107 236.2,45.29 C236.2,44.1299942 236.969992,43.3300022 238.51,42.89 L240.31,43.7 C240.149999,44.2800029 240.07,44.8299974 240.07,45.35 C240.07,47.0700086 241.349987,47.93 243.91,47.93 C245.470008,47.93 246.669996,47.6400029 247.51,47.06 C248.350004,46.4799971 248.77,45.7600043 248.77,44.9 C248.77,44.0399957 248.515003,43.4650015 248.005,43.175 C247.494997,42.8849985 246.480008,42.74 244.96,42.74 L242.05,42.74 C240.429992,42.74 239.270004,42.4700027 238.57,41.93 C237.869997,41.3899973 237.52,40.725004 237.52,39.935 C237.52,39.1449961 237.769998,38.4850026 238.27,37.955 C238.770002,37.4249973 239.659994,36.7700039 240.94,35.99 C238.619988,35.3299967 237.46,33.8100119 237.46,31.43 C237.46,29.9299925 237.999995,28.7200046 239.08,27.8 C240.160005,26.8799954 241.779989,26.42 243.94,26.42 C245.240006,26.42 246.349995,26.6699975 247.27,27.17 C247.149999,26.6299973 247.09,26.1400022 247.09,25.7 C247.09,24.5799944 247.389997,23.7700025 247.99,23.27 C248.590003,22.7699975 249.259996,22.52 250,22.52 C250.740004,22.52 251.334998,22.714998 251.785,23.105 C252.235002,23.495002 252.46,24.0299966 252.46,24.71 C252.46,25.3900034 252.280002,25.8949984 251.92,26.225 C251.559998,26.5550017 251.125003,26.72 250.615,26.72 C250.104997,26.72 249.685002,26.5850013 249.355,26.315 C249.024998,26.0449986 248.85,25.6600025 248.83,25.16 Z M242.47,30.77 L242.47,32.39 C242.47,33.7300067 242.584999,34.6399976 242.815,35.12 C243.045001,35.6000024 243.394998,35.84 243.865,35.84 C244.335002,35.84 244.674999,35.6050023 244.885,35.135 C245.095001,34.6649977 245.2,33.7000073 245.2,32.24 L245.2,30.77 C245.2,29.2099922 245.100001,28.1850024 244.9,27.695 C244.699999,27.2049976 244.365002,26.96 243.895,26.96 C243.424998,26.96 243.070001,27.2149974 242.83,27.725 C242.589999,28.2350026 242.47,29.2499924 242.47,30.77 Z M262.15,35.09 L262.15,32.54 C262.15,30.5999903 262.045001,29.1850045 261.835,28.295 C261.624999,27.4049956 261.140004,26.96 260.38,26.96 C259.939998,26.96 259.585001,27.0849988 259.315,27.335 C259.044999,27.5850013 258.850001,27.9999971 258.73,28.58 C258.549999,29.4800045 258.46,30.8499908 258.46,32.69 L258.46,35.03 C258.46,37.2100109 258.524999,38.5199978 258.655,38.96 C258.785001,39.4000022 258.919999,39.7599986 259.06,40.04 C259.280001,40.5200024 259.709997,40.76 260.35,40.76 C261.130004,40.76 261.639999,40.3100045 261.88,39.41 C262.060001,38.7699968 262.15,37.3300112 262.15,35.09 Z M260.29,41.3 C257.789988,41.3 255.900006,40.6600064 254.62,39.38 C253.339994,38.0999936 252.7,36.265012 252.7,33.875 C252.7,31.4849881 253.384993,29.6450064 254.755,28.355 C256.125007,27.0649936 258.049988,26.42 260.53,26.42 C263.010012,26.42 264.859994,27.014994 266.08,28.205 C267.300006,29.395006 267.91,31.2099878 267.91,33.65 C267.91,38.7500255 265.370025,41.3 260.29,41.3 Z" id="AbstractLogo" fill="#212212"></path>
                    </g>
                </g>
            </g>
        </g>
    </g>
</svg>