<?xml version="1.0" encoding="UTF-8"?>
<svg width="28px" height="28px" viewBox="0 0 28 28" version="1.1" xmlns="http://www.w3.org/2000/svg" xmlns:xlink="http://www.w3.org/1999/xlink">
    <!-- Generator: Sketch 57.1 (83088) - https://sketch.com -->
    <title>search</title>
    <desc>Created with Sketch.</desc>
    <g id="Mockup" stroke="none" stroke-width="1" fill="none" fill-rule="evenodd">
        <g id="PHONE" transform="translate(-173.000000, -111.000000)" fill="#000000" fill-rule="nonzero">
            <g id="header-XS" transform="translate(0.000000, 20.000000)">
                <g id="header">
                    <g id="search" transform="translate(173.000000, 91.000000)">
                        <path d="M27.754386,26.2861598 L20.7134503,19.2452242 C20.5879142,19.1196881 20.4241715,19.054191 20.2495127,19.054191 L19.6873294,19.054191 C21.5594542,17.0292398 22.705653,14.3274854 22.705653,11.3528265 C22.705653,5.08148148 17.6241715,0 11.3528265,0 C5.08148148,0 0,5.08148148 0,11.3528265 C0,17.6241715 5.08148148,22.705653 11.3528265,22.705653 C14.3274854,22.705653 17.0292398,21.5594542 19.054191,19.6927875 L19.054191,20.2495127 C19.054191,20.4241715 19.1251462,20.5879142 19.2452242,20.7134503 L26.2861598,27.754386 C26.5426901,28.0109162 26.9575049,28.0109162 27.2140351,27.754386 L27.754386,27.2140351 C28.0109162,26.9575049 28.0109162,26.5426901 27.754386,26.2861598 Z M11.3528265,20.9590643 C6.04210526,20.9590643 1.74658869,16.6635478 1.74658869,11.3528265 C1.74658869,6.04210526 6.04210526,1.74658869 11.3528265,1.74658869 C16.6635478,1.74658869 20.9590643,6.04210526 20.9590643,11.3528265 C20.9590643,16.6635478 16.6635478,20.9590643 11.3528265,20.9590643 Z" id="Shape"></path>
                    </g>
                </g>
            </g>
        </g>
    </g>
</svg>