<?xml version="1.0" encoding="UTF-8"?>
<svg width="28px" height="28px" viewBox="0 0 28 28" version="1.1" xmlns="http://www.w3.org/2000/svg" xmlns:xlink="http://www.w3.org/1999/xlink">
    <!-- Generator: Sketch 57.1 (83088) - https://sketch.com -->
    <title>Shape</title>
    <desc>Created with Sketch.</desc>
    <g id="Mockup" stroke="none" stroke-width="1" fill="none" fill-rule="evenodd">
        <g id="PHONE" transform="translate(-221.000000, -111.000000)" fill="#000000" fill-rule="nonzero">
            <g id="header-XS" transform="translate(0.000000, 20.000000)">
                <g id="header">
                    <path d="M235,92.75 C238.379687,92.75 241.125,95.4953125 241.125,98.875 C241.125,102.254688 238.379687,105 235,105 C231.620313,105 228.875,102.254688 228.875,98.875 C228.875,95.4953125 231.620313,92.75 235,92.75 L235,92.75 Z M242,110.25 C244.892969,110.25 247.25,112.607031 247.25,115.5 L247.25,117.25 L222.75,117.25 L222.75,115.5 C222.75,112.607031 225.107031,110.25 228,110.25 C232.648438,110.25 231.680469,111.125 235,111.125 C238.330469,111.125 237.346094,110.25 242,110.25 L242,110.25 Z M235,91 C230.652344,91 227.125,94.5273438 227.125,98.875 C227.125,103.222656 230.652344,106.75 235,106.75 C239.347656,106.75 242.875,103.222656 242.875,98.875 C242.875,94.5273438 239.347656,91 235,91 Z M242,108.5 C236.946875,108.5 238.117188,109.375 235,109.375 C231.89375,109.375 233.047656,108.5 228,108.5 C224.133594,108.5 221,111.633594 221,115.5 L221,117.25 C221,118.217969 221.782031,119 222.75,119 L247.25,119 C248.217969,119 249,118.217969 249,117.25 L249,115.5 C249,111.633594 245.866406,108.5 242,108.5 Z" id="Shape"></path>
                </g>
            </g>
        </g>
    </g>
</svg>